<?xml version="1.0" ?><svg style="enable-background:new 0 0 512 512;" version="1.1" viewBox="0 0 512 512" xml:space="preserve" xmlns="http://www.w3.org/2000/svg" xmlns:xlink="http://www.w3.org/1999/xlink"><g id="outerdark"><path d="M256.5,20C126.4,20,21,125.4,21,255.5S126.4,491,256.5,491S492,385.6,492,255.5S386.6,20,256.5,20z    M256,460.5c-112.9,0-204.5-91.6-204.5-204.5S143.1,51.5,256,51.5S460.5,143.1,460.5,256S368.9,460.5,256,460.5z" style="fill:#1AB7EA;"/></g><g id="outerlight"><path d="M423.1,89l-22.4,22.4c37,37,59.8,88.1,59.8,144.6c0,112.9-91.6,204.5-204.5,204.5   c-56.4,0-107.6-22.9-144.6-59.8L90,422.1c92,92,241.1,92,333,0S515,181,423.1,89z" style="opacity:0.2;fill:#FFFFFF;"/></g><g id="innerdark"><circle cx="256" cy="256" r="180" style="fill:#1AB7EA;"/></g><g id="Vimeo"><path d="M360.4,207.4c-0.9,20.3-15.1,48.2-42.6,83.5c-28.4,36.9-52.5,55.4-72.1,55.4   c-12.2,0-22.5-11.2-30.9-33.7c-5.6-20.6-11.2-41.2-16.9-61.9c-6.3-22.5-13-33.7-20.1-33.7c-1.6,0-7,3.3-16.4,9.8l-9.8-12.7   c10.3-9.1,20.5-18.1,30.5-27.2c13.8-11.9,24.1-18.1,31-18.8c16.3-1.6,26.3,9.6,30,33.3c4.1,25.7,6.9,41.6,8.4,47.9   c4.7,21.3,9.9,31.9,15.5,31.9c4.4,0,10.9-6.9,19.7-20.7c8.7-13.8,13.4-24.3,14.1-31.6c1.3-11.9-3.4-17.9-14.1-17.9   c-5,0-10.2,1.2-15.5,3.4c10.3-33.6,29.9-50,58.9-49C351.5,166.3,361.6,180.2,360.4,207.4z" style="fill:#FFFFFF;"/></g><g id="innerlight"><path d="M128.1,382.6c-70.3-70.3-70.3-184.3,0-254.6s184.3-70.3,254.6,0" style="opacity:0.2;fill:#FFFFFF;"/><g/><g/><g/><g/><g/><g/></g></svg>